<svg width="27" height="27" viewBox="0 0 27 27" fill="none" xmlns="http://www.w3.org/2000/svg">
<path d="M19.125 1H7.04167C3.70495 1 1 3.70495 1 7.04167V19.125C1 22.4617 3.70495 25.1667 7.04167 25.1667H19.125C22.4617 25.1667 25.1667 22.4617 25.1667 19.125V7.04167C25.1667 3.70495 22.4617 1 19.125 1Z" stroke="#DC2F4A" stroke-width="2" stroke-linecap="round" stroke-linejoin="round"/>
<path d="M17.9167 12.3221C18.0658 13.3278 17.894 14.3548 17.4258 15.2572C16.9576 16.1596 16.2167 16.8913 15.3086 17.3484C14.4005 17.8055 13.3715 17.9646 12.3677 17.803C11.364 17.6415 10.4368 17.1676 9.71793 16.4488C8.99907 15.7299 8.52518 14.8027 8.36367 13.799C8.20216 12.7952 8.36125 11.7662 8.81831 10.8581C9.27538 9.94999 10.0071 9.20914 10.9095 8.74091C11.8119 8.27269 12.839 8.10092 13.8446 8.25004C14.8704 8.40215 15.82 8.88014 16.5533 9.61341C17.2866 10.3467 17.7646 11.2963 17.9167 12.3221Z" stroke="#DC2F4A" stroke-width="2" stroke-linecap="round" stroke-linejoin="round"/>
<path d="M19.7292 6.4375H19.7404" stroke="#DC2F4A" stroke-width="2" stroke-linecap="round" stroke-linejoin="round"/>
</svg>
